HIERARCHY
ROOT hip
{
  OFFSET 0 0 0
  CHANNELS 6 Xposition Yposition Zposition Zrotation Yrotation Xrotation
  JOINT abdomen
  {
    OFFSET 0 20.6881 -0.73152
    CHANNELS 3 Zrotation Xrotation Yrotation
    JOINT chest
    {
      OFFSET 0 11.7043 -0.48768
      CHANNELS 3 Zrotation Xrotation Yrotation
      JOINT neck
      {
        OFFSET 0 22.1894 -2.19456
        CHANNELS 3 Zrotation Xrotation Yrotation
        JOINT head
        {
          OFFSET -0.24384 7.07133 1.2192
          CHANNELS 3 Zrotation Xrotation Yrotation
          JOINT leftEye
          {
            OFFSET 4.14528 8.04674 8.04672
            CHANNELS 3 Zrotation Xrotation Yrotation
            End Site
            {
              OFFSET 1 0 0
            }
          }
          JOINT rightEye
          {
            OFFSET -3.6576 8.04674 8.04672
            CHANNELS 3 Zrotation Xrotation Yrotation
            End Site
            {
              OFFSET 1 0 0
            }
          }
        }
      }
      JOINT rCollar
      {
        OFFSET -2.68224 19.2634 -4.8768
        CHANNELS 3 Zrotation Xrotation Yrotation
        JOINT rShldr
        {
          OFFSET -8.77824 -1.95073 1.46304
          CHANNELS 3 Zrotation Xrotation Yrotation
          JOINT rForeArm
          {
            OFFSET -28.1742 -1.7115 0.48768
            CHANNELS 3 Zrotation Xrotation Yrotation
            JOINT rHand
            {
              OFFSET -22.5879 0.773209 7.07136
              CHANNELS 3 Zrotation Xrotation Yrotation
              JOINT rThumb1
              {
                OFFSET -1.2192 -0.487915 3.41376
                CHANNELS 3 Zrotation Xrotation Yrotation
                JOINT rThumb2
                {
                  OFFSET -3.37035 -0.52449 3.41376
                  CHANNELS 3 Zrotation Xrotation Yrotation
                  End Site
                  {
                    OFFSET -1.78271 -1.18214 1.43049
                  }
                }
              }
              JOINT rIndex1
              {
                OFFSET -7.75947 0.938293 5.60832
                CHANNELS 3 Zrotation Xrotation Yrotation
                JOINT rIndex2
                {
                  OFFSET -2.54057 -0.884171 1.56538
                  CHANNELS 3 Zrotation Xrotation Yrotation
                  End Site
                  {
                    OFFSET -1.62519 -0.234802 1.16502
                  }
                }
              }
              JOINT rMid1
              {
                OFFSET -8.24714 1.18213 3.41376
                CHANNELS 3 Zrotation Xrotation Yrotation
                JOINT rMid2
                {
                  OFFSET -3.10165 -0.590103 1.0647
                  CHANNELS 3 Zrotation Xrotation Yrotation
                  End Site
                  {
                    OFFSET -2.48547 -0.328903 0.83742
                  }
                }
              }
              JOINT rRing1
              {
                OFFSET -8.82822 0.546677 1.51678
                CHANNELS 3 Zrotation Xrotation Yrotation
                JOINT rRing2
                {
                  OFFSET -2.60934 -0.819778 -0.0198488
                  CHANNELS 3 Zrotation Xrotation Yrotation
                  End Site
                  {
                    OFFSET -2.33842 -0.294052 0.168128
                  }
                }
              }
              JOINT rPinky1
              {
                OFFSET -8.27202 -0.0477905 -0.4584
                CHANNELS 3 Zrotation Xrotation Yrotation
                JOINT rPinky2
                {
                  OFFSET -1.82734 -0.647385 -0.700984
                  CHANNELS 3 Zrotation Xrotation Yrotation
                  End Site
                  {
                    OFFSET -1.69225 -0.51767 -0.607171
                  }
                }
              }
            }
          }
        }
      }
      JOINT lCollar
      {
        OFFSET 2.68224 19.2634 -4.8768
        CHANNELS 3 Zrotation Xrotation Yrotation
        JOINT lShldr
        {
          OFFSET 8.77824 -1.95073 1.46304
          CHANNELS 3 Zrotation Xrotation Yrotation
          JOINT lForeArm
          {
            OFFSET 28.1742 -1.7115 0.48768
            CHANNELS 3 Zrotation Xrotation Yrotation
            JOINT lHand
            {
              OFFSET 22.5879 0.773209 7.07136
              CHANNELS 3 Zrotation Xrotation Yrotation
              JOINT lThumb1
              {
                OFFSET 1.2192 -0.487915 3.41376
                CHANNELS 3 Zrotation Xrotation Yrotation
                JOINT lThumb2
                {
                  OFFSET 3.37035 -0.52449 3.41376
                  CHANNELS 3 Zrotation Xrotation Yrotation
                  End Site
                  {
                    OFFSET 1.78271 -1.18214 1.43049
                  }
                }
              }
              JOINT lIndex1
              {
                OFFSET 7.75947 0.938293 5.60832
                CHANNELS 3 Zrotation Xrotation Yrotation
                JOINT lIndex2
                {
                  OFFSET 2.54057 -0.884171 1.56538
                  CHANNELS 3 Zrotation Xrotation Yrotation
                  End Site
                  {
                    OFFSET 1.62519 -0.234802 1.16502
                  }
                }
              }
              JOINT lMid1
              {
                OFFSET 8.24714 1.18213 3.41376
                CHANNELS 3 Zrotation Xrotation Yrotation
                JOINT lMid2
                {
                  OFFSET 3.10165 -0.590103 1.0647
                  CHANNELS 3 Zrotation Xrotation Yrotation
                  End Site
                  {
                    OFFSET 2.48547 -0.328903 0.83742
                  }
                }
              }
              JOINT lRing1
              {
                OFFSET 8.82822 0.546677 1.51678
                CHANNELS 3 Zrotation Xrotation Yrotation
                JOINT lRing2
                {
                  OFFSET 2.60934 -0.819778 -0.0198488
                  CHANNELS 3 Zrotation Xrotation Yrotation
                  End Site
                  {
                    OFFSET 2.33842 -0.294052 0.168128
                  }
                }
              }
              JOINT lPinky1
              {
                OFFSET 8.27202 -0.0477905 -0.4584
                CHANNELS 3 Zrotation Xrotation Yrotation
                JOINT lPinky2
                {
                  OFFSET 1.82734 -0.647385 -0.700984
                  CHANNELS 3 Zrotation Xrotation Yrotation
                  End Site
                  {
                    OFFSET 1.69225 -0.51767 -0.607171
                  }
                }
              }
            }
          }
        }
      }
    }
  }
  JOINT rButtock
  {
    OFFSET -8.77824 4.35084 1.2192
    CHANNELS 3 Zrotation Xrotation Yrotation
    JOINT rThigh
    {
      OFFSET 0 -1.70687 -2.19456
      CHANNELS 3 Zrotation Xrotation Yrotation
      JOINT rShin
      {
        OFFSET 0 -36.8199 0.73152
        CHANNELS 3 Zrotation Xrotation Yrotation
        JOINT rFoot
        {
          OFFSET 0.73152 -45.1104 -5.12064
          CHANNELS 3 Zrotation Xrotation Yrotation
          End Site
          {
            OFFSET -1.1221 -3.69964 12.103
          }
        }
      }
    }
  }
  JOINT lButtock
  {
    OFFSET 8.77824 4.35084 1.2192
    CHANNELS 3 Zrotation Xrotation Yrotation
    JOINT lThigh
    {
      OFFSET 0 -1.70687 -2.19456
      CHANNELS 3 Zrotation Xrotation Yrotation
      JOINT lShin
      {
        OFFSET 0 -36.8199 0.73152
        CHANNELS 3 Zrotation Xrotation Yrotation
        JOINT lFoot
        {
          OFFSET -0.73152 -45.1104 -5.12064
          CHANNELS 3 Zrotation Xrotation Yrotation
          End Site
          {
            OFFSET 1.1221 -3.69964 12.103
          }
        }
      }
    }
  }
}
MOTION
Frames:	8
Frame Time:	0.03333
-13.4652 1.8702 86.0047 94.106172 24.786382 -104.780434 7.813914 6.946521 170.963921 155.62195 59.509848 32.643093 133.69397 -51.657207 -162.54178 -177.859878 43.9701 90.128643 172.035482 3.228847 -44.081929 110.695849 20.897278 -29.877235 -22.20406 -28.771128 164.784816 -114.579955 12.802858 -13.361209 1.190396 -11.382887 -140.867627 50.593166 -7.911621 -128.093361 -80.45318 3.017552 -127.833495 -46.184756 -53.419871 171.49946 -140.02065 41.813507 155.807142 101.307799 74.731969 -74.412346 -29.908754 -39.064444 -117.796151 137.367953 -68.933708 -7.922066 -111.849651 -16.882602 33.144309 56.307395 11.674543 115.481358 82.195596 -57.517528 -75.85559 51.207606 -6.732829 164.848575 -116.012532 -65.628378 95.739544 -40.668719 -15.890576 179.74874 10.75072 -67.648677 168.79254 -6.762754 22.198379 128.033012 -72.813993 -34.043761 10.240482 -128.610588 1.538457 53.91965 -115.800767 57.573933 69.881559 -164.835197 48.046025 41.911454 -151.368883 15.252936 95.371224 -23.722534 38.293432 -90.2242 35.444832 -75.312687 -144.085157 -75.885125 -68.318018 -88.614486 -36.384109 -32.983497 -124.118882 -126.433931 -1.197951 -16.266142 -150.673876 8.358386 75.714346 177.017907 82.545238 109.221671 -34.87497 -61.272664 -71.48078 37.804298 -65.543876 66.110727 -127.188439 50.159882 114.467536 -123.244455 15.092123 -105.944503 124.518744 49.833312 167.525739 -42.522018 19.268283 -156.410176
-13.672300000000002 1.8855 87.6629 94.380202 24.706978 -104.690869 6.56559 10.398908 46.078891 -121.219732 -17.195863 -98.599347 151.622352 -69.062238 60.027448 -139.997687 -54.165407 -41.297565 171.776024 3.410146 -44.985874 110.678086 21.084578 -30.129198 143.477899 -64.561387 -10.089563 103.233912 -25.579836 -84.776365 -3.72547 4.650026 107.892293 132.886829 40.424907 34.88302 5.431183 13.585882 -132.00036 143.652134 -5.183731 19.023029 -94.016277 -49.212857 -158.624822 -165.881609 -27.634875 50.215549 -17.352739 -39.799756 -108.678575 130.390709 -5.093194 1.154311 -87.266678 -48.810383 34.62923 26.177004 30.547603 115.418361 14.898874 13.240404 -148.978369 145.122863 19.81545 61.812275 -71.908031 -58.591614 139.391831 -32.921591 -22.577098 -171.779901 176.175757 -78.914347 -23.780621 -9.411566 14.26091 127.138085 137.430337 -31.669177 -98.815608 0.855774 16.491326 136.038772 -177.929032 71.680945 118.194906 -168.689988 25.649633 28.970044 -140.406095 12.75656 94.585331 -1.110112 42.75561 -103.038336 -69.96026 45.82359 -106.399895 -97.536077 78.767994 42.919038 -161.267989 1.163912 -115.541442 -175.645421 -55.058493 53.154884 -151.007523 43.584315 104.842151 86.376497 61.120263 7.870298 35.237868 44.267097 -72.899822 122.327891 39.890164 108.452391 -176.06724 -36.94829 -1.553395 23.180077 -44.166102 -172.507481 -121.697123 14.916026 -68.023288 -34.085183 10.943402 -70.211453
-13.889199999999999 1.8742999999999999 89.3242 94.935561 25.786942 -104.386321 4.15216 8.658152 90.911294 -120.351707 21.882922 -77.094511 120.612817 -55.631009 -122.140801 138.120611 22.721749 148.246967 171.761844 3.368344 -44.418819 112.52716 20.991303 -31.008487 -23.804205 -60.430096 170.398551 -115.359067 10.606392 -38.754509 -161.928188 -5.482185 -72.24573 129.439666 46.884253 43.161576 177.683895 0.015141 -140.221792 -20.810477 27.983384 -67.808282 -39.841595 -56.71772 -104.110687 6.470655 -17.194167 55.728768 155.310744 60.634616 -103.66185 -32.215834 61.452681 -86.342017 -110.825035 -18.10828 32.109423 -119.368517 -31.114894 59.105827 166.810666 56.319872 22.35479 32.626177 11.678512 -162.3913 -29.718034 23.990483 -178.13408 11.650799 -50.348896 -167.353503 -0.957296 -39.631479 -120.07632 -161.102651 -3.848525 -18.876026 162.042295 -51.919288 -85.217955 -116.876422 30.209869 93.922911 -149.608544 69.513093 93.78285 -145.293122 -75.084424 61.73114 39.225074 8.207665 123.645324 53.615609 41.086939 63.886452 50.239559 -79.262717 -131.090109 -91.435898 -69.931737 -105.341354 45.547558 -34.164071 -97.813008 35.333403 -11.340769 -143.329864 -150.435101 14.209929 81.692806 139.877595 79.052659 -119.579919 -65.411686 16.000533 -58.682262 -126.555831 26.43294 -21.023792 -177.805784 -36.795559 -2.894384 22.351859 -43.892394 135.458905 -112.51291 -29.674452 66.172359 -174.781768 8.545835 -134.78126
-14.135200000000001 1.8437 90.9874 95.414234 27.168523 -104.301269 5.914986 11.423389 -43.734665 150.877087 -52.131671 147.52176 116.94194 -67.736114 -51.856703 129.269409 -35.218846 -163.506123 171.730368 3.268588 -43.075581 114.624785 20.713256 -31.794004 125.383972 38.514053 15.192755 139.143933 9.118907 13.477621 -3.550142 13.665221 110.003509 132.827648 41.110575 33.063093 4.472723 12.215637 -130.242223 175.408931 -29.873761 7.845191 22.038094 48.169364 -33.699547 -10.730298 42.180693 -56.28101 140.131622 60.141416 -92.339514 89.399978 5.706612 -175.033893 91.575408 -11.671968 148.254737 149.223716 -10.834475 -59.524868 65.480961 -53.113744 -91.308935 -178.893313 11.123484 65.03348 163.229434 58.400629 11.555875 -36.983173 -46.312296 132.054371 7.504259 43.357784 146.362892 -7.047224 22.452474 129.047125 148.160446 -43.108288 -94.952797 -132.357061 35.573497 104.914575 34.321121 -32.062556 153.244301 -4.598079 55.476716 147.182624 23.30699 4.177586 122.602291 -158.606427 -23.302696 126.529235 50.522096 -78.13033 -131.633142 -140.390227 -48.655526 -145.126323 46.878415 -32.822604 -98.050862 -126.436653 -14.519583 -77.408959 -151.366018 17.163703 85.347278 114.6436 76.663213 3.553311 36.722975 44.790692 -60.339724 82.561817 73.570354 129.01788 142.464037 -17.764669 -53.264131 74.864649 -21.086244 142.06349 -132.038304 -45.865502 -46.636583 130.812811 53.996502 128.950792
-14.4155 1.8037 92.6527 95.660676 28.361754 -104.546964 0.949627 13.671814 27.617739 -130.2692 -31.240362 -115.372699 153.601994 -68.899288 66.322488 -135.391035 -51.860229 -31.81756 171.58736 3.199133 -41.58275 115.992809 20.430011 -32.168571 144.515822 -55.364827 -8.625407 108.337052 -23.730855 -74.513737 -178.903461 -3.018082 35.869723 54.128906 -12.664123 -125.303882 -0.552575 10.842198 -128.798907 179.768834 -39.281192 6.92818 18.247809 59.762085 -27.231046 135.114264 63.235152 -174.012017 -46.175722 -38.36737 -129.90445 111.905109 55.861003 -11.121107 -109.866827 -19.939537 30.350033 43.107019 6.877725 118.020358 145.730537 -25.333773 -9.686775 -133.817887 -82.899196 26.476442 173.959452 -15.579813 25.182925 -58.928433 -37.776342 141.563722 54.929909 31.358996 153.056939 159.778908 81.75162 -13.622505 -4.898964 44.743605 -12.213701 169.986856 -4.629118 54.229001 -0.416199 -42.516329 123.088393 -114.511166 -19.820773 144.046072 -126.633654 9.135744 94.03969 -155.498223 -65.097662 -13.890858 -47.1347 37.004072 -124.234527 86.496617 -79.237147 152.914381 62.495023 -28.164353 -95.652132 -131.15395 -12.133023 -91.179063 99.825352 13.677434 -83.972196 -1.70012 5.897939 -151.636249 -55.379566 20.063107 121.263464 120.445443 -33.232932 145.357658 167.565065 -35.356409 -18.109743 37.41308 -39.149995 83.540011 -169.273072 -58.728372 117.505117 111.161437 -2.592318 -6.134602
-14.7256 1.7613 94.3207 95.703606 29.280162 -105.018922 0.101237 16.186439 2.767852 -148.960383 -46.539993 -142.109647 156.231947 -60.213266 120.877504 -122.280243 -11.383754 8.069626 171.366019 3.167102 -40.227195 116.484052 20.244482 -32.175944 130.914532 26.844366 9.330793 -37.2318 -9.637043 174.775309 17.698383 -4.267768 -143.294713 62.619143 -19.909423 -112.981154 -176.420734 1.980765 -142.353526 -155.719598 16.549333 175.416368 11.44042 69.041755 -18.877493 4.434257 25.917688 -59.703288 15.680295 -35.47419 -80.089744 -33.791441 -9.447612 124.96525 79.920012 -31.135728 152.005998 149.841696 4.928614 -41.330995 7.186245 28.580097 -146.88323 69.16835 48.52281 126.775533 162.230987 49.318657 12.402184 -30.318055 -36.33829 139.612149 151.198355 -17.899245 50.629444 -170.67309 24.491364 -25.010138 -18.183699 38.048533 -1.274469 -71.882464 57.330791 -109.956487 47.765269 -26.985683 165.358699 -42.282506 43.521645 178.086788 113.061685 23.43175 115.077873 166.942805 54.190337 -39.768829 -107.1651 41.313628 -67.522869 -75.491968 47.64552 40.47398 -1.025174 -34.145638 -112.249247 1.129385 35.839516 -153.112439 -154.161094 30.897395 98.657234 86.84334 62.776572 3.569232 25.377122 54.745239 -67.679535 -173.428158 -54.954361 159.965182 176.18879 66.374819 -173.75059 -165.815104 28.72816 -142.482358 -139.095966 59.925155 74.280769 148.224431 4.941728 160.889088
-15.057100000000002 1.7211 95.992 95.618983 29.977427 -105.57781 -1.200254 13.672072 -175.913997 146.854632 48.762395 40.783683 119.460834 -56.42152 -119.696481 136.592744 22.536202 153.68696 171.12645 3.158175 -39.118939 116.33882 20.153859 -31.950535 139.825548 -12.339149 -1.097742 115.691152 -28.54883 -36.179708 172.625248 -18.556998 30.609712 59.958589 -17.808959 -117.861822 16.304068 11.606244 -128.911967 31.174261 -29.801885 95.407528 -119.878565 -40.072248 177.86869 143.391828 -38.402977 32.888997 63.125794 10.017115 -54.180118 -72.606404 -47.885846 51.759734 94.220432 -7.922177 148.534498 -60.256442 41.87326 -112.073988 170.460325 48.699903 11.330647 77.919083 -69.155356 -105.311039 -38.1289 -2.53371 177.429849 3.575857 -49.016356 -163.057792 1.100869 -10.312797 -117.010065 -163.242111 -2.987685 -19.812445 -155.027697 -66.75135 -52.576633 -148.982501 59.163094 77.91595 20.510872 -42.865323 141.759496 -41.720166 26.514164 162.80994 64.713347 14.674983 122.699127 65.906573 68.208141 53.120568 54.470152 -75.853118 -130.590718 -113.757825 -70.203398 -126.412367 -143.837884 -5.992551 -119.600553 -56.480576 28.430799 135.446018 102.432155 -4.086122 -71.597643 -18.904687 10.618723 -108.280933 -9.021916 62.921729 105.953044 73.139717 38.185543 88.21127 -177.961823 -38.308298 1.934304 18.473033 -42.866071 -17.872928 123.998087 1.270025 88.085914 -152.933137 17.057522 37.234513
-15.3838 1.7141 97.6699 95.143102 29.186384 -106.215825 1.311201 19.026142 -42.787589 155.508651 -47.149672 148.224419 114.218459 -61.878123 -87.898642 126.857527 -5.095755 175.77379 170.889401 3.291015 -39.655253 114.706847 20.45411 -31.454854 118.510607 46.225153 20.750435 169.416878 -52.037456 30.027848 139.509624 86.759408 -27.137476 134.517617 33.847593 22.23506 177.468784 2.968843 -142.723984 37.823365 77.009204 -87.295115 -139.456418 32.458508 151.469749 49.731618 -34.398942 -46.982986 145.231076 63.148719 -97.956066 -46.033569 73.466316 -67.701993 82.20918 -27.643071 151.499385 -22.467084 11.768147 -144.082924 175.633944 70.084905 14.795738 158.96561 -59.233889 -10.420704 160.147893 47.010023 12.964715 18.176824 35.959698 145.636156 -2.464835 -52.868875 -117.214063 -161.602528 -7.481046 -18.736375 0.0865 48.550664 -15.705582 -77.71126 -18.21782 -168.77812 17.27074 -43.486487 138.809833 -77.939441 -3.131019 163.705815 37.710624 7.816058 122.732192 -76.467059 23.292774 153.496212 166.867722 -66.600418 -30.572247 -162.422405 20.319866 -172.871151 75.861767 -23.622954 -95.521807 28.884693 -23.801682 -119.313576 133.341924 -36.325515 -24.659083 -51.344241 31.302379 -62.977174 66.036893 18.020252 48.92226 61.089711 -66.018973 95.138486 149.204585 -28.860776 -40.470255 60.466857 -29.65778 129.682595 -128.476306 -39.225253 150.387858 117.787306 13.162389 -14.751571
